<?xml version="1.0" encoding="UTF-8"?>
<svg width="1200pt" height="1200pt" version="1.1" viewBox="0 0 1200 1200" xmlns="http://www.w3.org/2000/svg">
 <path d="m1034.5 150.94h-234.84c-13.922-18.703-36.234-30.938-61.312-30.938-36.609 0-67.312 25.922-74.625 60.375l-191.06 147.71c-3.6094-0.60938-7.3125-0.9375-11.156-0.9375-25.078 0-47.297 12.234-61.219 30.938h-234.84c-25.078 0-45.469 20.391-45.469 45.469s20.391 45.469 45.469 45.469h234.84c13.922 18.703 36.141 30.938 61.219 30.938 42.141 0 76.453-34.312 76.453-76.453 0-3.6094-0.375-7.0781-0.84375-10.547l166.55-128.63c10.453 5.3906 22.219 8.5312 34.688 8.5312 25.078 0 47.391-12.234 61.312-30.938h234.84c25.078 0 45.469-20.391 45.469-45.469s-20.391-45.469-45.469-45.469zm-573 305.06c-28.922 0-52.453-23.531-52.453-52.453s23.531-52.453 52.453-52.453 52.453 23.531 52.453 52.453-23.531 52.453-52.453 52.453zm276.84-207.14c-28.781 0-52.312-23.531-52.312-52.453s23.531-52.453 52.312-52.453 52.453 23.531 52.453 52.453-23.531 52.453-52.453 52.453z" fill="#fff"/>
 <path d="m1034.5 958.08h-234.84c-13.922-18.703-36.234-30.938-61.312-30.938-42.141 0-76.312 34.312-76.312 76.453s34.219 76.453 76.312 76.453c25.078 0 47.391-12.234 61.312-30.938h234.84c25.078 0 45.469-20.391 45.469-45.469s-20.391-45.469-45.469-45.469zm-296.16 97.922c-28.781 0-52.312-23.531-52.312-52.453s23.531-52.453 52.312-52.453 52.453 23.531 52.453 52.453-23.531 52.453-52.453 52.453z" fill="#fff"/>
 <path d="m1034.5 750.94h-234.84c-13.922-18.703-36.234-30.938-61.312-30.938-36.609 0-67.312 25.922-74.625 60.375l-191.06 147.71c-3.6094-0.60938-7.3125-0.9375-11.156-0.9375-25.078 0-47.297 12.234-61.219 30.938h-234.84c-25.078 0-45.469 20.391-45.469 45.469s20.391 45.469 45.469 45.469h234.84c13.922 18.703 36.141 30.938 61.219 30.938 42.141 0 76.453-34.312 76.453-76.453 0-3.6094-0.375-7.0781-0.84375-10.547l166.55-128.63c10.453 5.3906 22.219 8.5312 34.688 8.5312 25.078 0 47.391-12.234 61.312-30.938h234.84c25.078 0 45.469-20.391 45.469-45.469s-20.391-45.469-45.469-45.469zm-573 305.06c-28.922 0-52.453-23.531-52.453-52.453s23.531-52.453 52.453-52.453 52.453 23.531 52.453 52.453-23.531 52.453-52.453 52.453zm276.84-207.14c-28.781 0-52.312-23.531-52.312-52.453s23.531-52.453 52.312-52.453 52.453 23.531 52.453 52.453-23.531 52.453-52.453 52.453z" fill="#fff"/>
 <path d="m1034.5 358.08h-234.84c-13.922-18.703-36.234-30.938-61.312-30.938-42.141 0-76.312 34.312-76.312 76.453s34.219 76.453 76.312 76.453c25.078 0 47.391-12.234 61.312-30.938h234.84c25.078 0 45.469-20.391 45.469-45.469s-20.391-45.469-45.469-45.469zm-296.16 97.922c-28.781 0-52.312-23.531-52.312-52.453s23.531-52.453 52.312-52.453 52.453 23.531 52.453 52.453-23.531 52.453-52.453 52.453z" fill="#fff"/>
 <path d="m600 477.71c11.766 0 21.469-9.6094 21.469-21.469v-36.141c0-11.859-9.7031-21.469-21.469-21.469s-21.469 9.6094-21.469 21.469v36.141c0 11.859 9.6094 21.469 21.469 21.469z" fill="#fff"/>
 <path d="m578.53 606.14c0 11.859 9.6094 21.469 21.469 21.469s21.469-9.6094 21.469-21.469v-36.234c0-11.859-9.7031-21.469-21.469-21.469s-21.469 9.6094-21.469 21.469z" fill="#fff"/>
 <path d="m578.53 755.86c0 11.859 9.6094 21.469 21.469 21.469s21.469-9.6094 21.469-21.469v-36.141c0-11.859-9.7031-21.469-21.469-21.469s-21.469 9.6094-21.469 21.469z" fill="#fff"/>
</svg>
